<svg width="192" height="72" viewBox="0 0 192 72" fill="none" xmlns="http://www.w3.org/2000/svg">
<path d="M189 40.8129C182.774 21.0019 179.224 10.6297 158.6 15.2128C148.268 17.5088 144.2 22.4153 144.2 32.0128C144.2 38.3929 153.8 36.9599 153.8 30.4128C153.8 21.8693 150.39 13.5387 143.4 8.1017C127.075 -4.59556 99.9832 9.82992 88.2 21.6128C83.5183 26.2944 82.242 39.4444 91.4 34.0573C97.868 30.2526 93.9486 19.1309 89.8001 15.2128C71.0072 -2.53659 48.3627 16.6501 34.7778 30.235C30.2131 34.7997 21.2094 45.2801 19.4889 51.3017C18.0944 56.1823 7.53746 40.0749 13.7111 48.0128C17.2837 52.6063 24.4544 59.2898 30.6 60.0128C33.5644 60.3615 17.0894 64.0621 14.6 65.1684C10.4234 67.0246 0.77452 72.0437 3.75557 66.4128C6.22379 61.7506 9.80005 53.8302 9.80005 48.8128" stroke="#AE79F1" stroke-width="5" stroke-linecap="round"/>
</svg>
