<svg width="497" height="455" viewBox="0 0 497 455" fill="none" xmlns="http://www.w3.org/2000/svg">
<path d="M5.45806 454.51C4.66954 454.768 3.89008 454.322 3.71711 453.513L0.898303 440.331C0.725327 439.522 1.22434 438.657 2.0128 438.399C2.80133 438.141 3.58079 438.587 3.75376 439.396L6.25935 451.114L17.681 447.377C18.4695 447.119 19.2489 447.566 19.4219 448.374C19.5949 449.183 19.0959 450.048 18.3074 450.306L5.45806 454.51ZM3.91383 452.34C12.0969 438.156 26.4079 426.371 44.8948 416.263C63.3992 406.145 86.2417 397.624 111.686 390.046C162.555 374.897 224.155 363.427 282.774 350.584C341.488 337.72 397.183 323.484 436.563 302.821C456.245 292.493 471.704 280.634 481.442 266.676C491.134 252.783 495.243 236.695 492.06 217.657L494.941 216.856C498.258 236.692 493.97 253.682 483.742 268.34C473.561 282.934 457.577 295.101 437.667 305.548C397.863 326.433 341.78 340.738 283.112 353.592C224.349 366.467 162.964 377.892 112.236 393C86.8817 400.551 64.273 408.999 46.0474 418.964C27.8042 428.939 14.1064 440.351 6.37585 453.751L3.91383 452.34ZM492.06 217.657C485.64 179.262 465.213 156.021 439.526 143.602C413.788 131.157 382.717 129.56 355.121 134.645C327.456 139.743 303.639 151.484 292.205 165.327C286.535 172.191 284.002 179.441 285.332 186.672C286.675 193.971 292.016 201.603 302.868 208.94L301.131 211.572C289.983 204.034 283.996 195.869 282.46 187.521C280.911 179.102 283.949 170.853 290.076 163.436C302.235 148.716 326.919 136.77 354.879 131.618C382.908 126.453 414.588 128.043 440.944 140.786C467.35 153.554 488.361 177.5 494.941 216.856L492.06 217.657ZM302.868 208.94C324.558 223.606 344.668 223.6 359.986 214.398C375.357 205.164 386.325 186.421 389.259 162.752C395.119 115.476 368.751 48.9351 281.918 3.07923L283.417 0.304782C370.917 46.513 398.214 114.004 392.157 162.869C389.133 187.271 377.746 207.125 361.252 217.034C344.706 226.974 323.441 226.656 301.131 211.572L302.868 208.94Z" fill="url(#paint0_linear_1_239)"/>
<defs>
<linearGradient id="paint0_linear_1_239" x1="30.7527" y1="262.676" x2="484.576" y2="172.164" gradientUnits="userSpaceOnUse">
<stop stop-color="#A9FE81"/>
<stop offset="1" stop-color="#C0F0FF"/>
</linearGradient>
</defs>
</svg>
