<svg width="323" height="452" viewBox="0 0 323 452" fill="none" xmlns="http://www.w3.org/2000/svg">
<path d="M316.991 152.516C317.175 151.698 316.771 150.669 316.089 150.217L304.973 142.855C304.291 142.404 303.588 142.701 303.404 143.519C303.22 144.337 303.623 145.366 304.306 145.818L314.187 152.362L311.518 164.211C311.333 165.029 311.737 166.059 312.419 166.511C313.101 166.962 313.804 166.665 313.988 165.847L316.991 152.516ZM195.189 36.3298C195 35.3958 194.294 34.6617 193.613 34.6903C192.933 34.719 192.534 35.4993 192.724 36.4334L195.189 36.3298ZM193.956 36.3816C192.724 36.4334 192.724 36.4335 192.724 36.4336C192.724 36.4336 192.724 36.4337 192.724 36.4337C192.724 36.4338 192.724 36.434 192.724 36.4341C192.724 36.4344 192.724 36.4348 192.724 36.4353C192.724 36.4362 192.724 36.4374 192.725 36.4388C192.725 36.4418 192.726 36.4459 192.727 36.4511C192.729 36.4615 192.732 36.4764 192.736 36.4958C192.744 36.5345 192.756 36.5911 192.772 36.665C192.803 36.8129 192.849 37.0302 192.911 37.3135C193.034 37.8799 193.219 38.7101 193.467 39.7754L195.902 39.5298C195.659 38.4906 195.48 37.6853 195.362 37.1424C195.303 36.871 195.259 36.6652 195.23 36.5285C195.216 36.4602 195.205 36.4092 195.198 36.3759C195.195 36.3593 195.192 36.3471 195.191 36.3394C195.19 36.3356 195.19 36.3328 195.189 36.3312C195.189 36.3304 195.189 36.3299 195.189 36.3297C195.189 36.3296 195.189 36.3295 195.189 36.3295C195.189 36.3296 195.189 36.3296 195.189 36.3296C195.189 36.3297 195.189 36.3297 195.189 36.3297C195.189 36.3298 195.189 36.3298 193.956 36.3816ZM195.157 46.5487C195.678 48.5247 196.286 50.7449 196.985 53.1674L199.355 52.6733C198.667 50.2906 198.069 48.108 197.557 46.1669L195.157 46.5487ZM199 59.8612C199.659 61.9654 200.373 64.1679 201.145 66.4499L203.446 65.7384C202.688 63.4944 201.985 61.328 201.336 59.258L199 59.8612ZM203.445 73.0021C204.219 75.1272 205.039 77.3005 205.905 79.5091L208.124 78.5708C207.273 76.4025 206.468 74.2679 205.708 72.1796L203.445 73.0021ZM208.528 85.9536C209.418 88.0593 210.349 90.1851 211.322 92.3204L213.434 91.1319C212.482 89.0412 211.57 86.9584 210.697 84.8937L208.528 85.9536ZM214.294 98.5927C215.307 100.649 216.359 102.704 217.453 104.75L219.426 103.281C218.36 101.285 217.332 99.2773 216.341 97.2678L214.294 98.5927ZM220.808 110.77C221.954 112.741 223.141 114.694 224.368 116.621L226.156 114.835C224.965 112.964 223.812 111.065 222.696 109.146L220.808 110.77ZM228.139 122.272C229.428 124.112 230.757 125.918 232.127 127.682L233.671 125.549C232.348 123.845 231.062 122.098 229.814 120.316L228.139 122.272ZM236.329 132.804C237.759 134.451 239.229 136.049 240.74 137.591L241.971 135.097C240.518 133.616 239.103 132.078 237.725 130.491L236.329 132.804ZM245.347 141.99C246.901 143.376 248.494 144.699 250.128 145.954L250.978 143.122C249.413 141.92 247.885 140.651 246.394 139.322L245.347 141.99ZM255.055 149.439C256.698 150.504 258.379 151.498 260.096 152.415L260.525 149.31C258.88 148.432 257.271 147.48 255.697 146.46L255.055 149.439ZM265.219 154.865C266.903 155.58 268.621 156.22 270.372 156.78L270.381 153.496C268.699 152.958 267.05 152.344 265.435 151.659L265.219 154.865ZM275.487 158.163C277.158 158.533 278.857 158.831 280.584 159.054L280.216 155.685C278.548 155.471 276.91 155.183 275.301 154.826L275.487 158.163ZM285.662 159.482C287.293 159.547 288.947 159.546 290.626 159.475L289.939 156.093C288.309 156.162 286.705 156.163 285.126 156.099L285.662 159.482ZM295.489 159.079C297.085 158.888 298.703 158.634 300.341 158.315L299.397 154.963C297.798 155.274 296.222 155.521 294.668 155.708L295.489 159.079ZM304.987 157.25C306.511 156.849 308.052 156.392 309.611 155.878L308.463 152.579C306.935 153.082 305.426 153.53 303.935 153.922L304.987 157.25ZM314.108 154.255C314.866 153.958 315.627 153.648 316.393 153.324L315.118 150.072C314.366 150.391 313.618 150.695 312.874 150.987L314.108 154.255Z" fill="url(#paint0_linear_1_163)"/>
<path d="M80.846 447.359C80.2371 447.09 80.0342 446.147 80.3927 445.252L86.2357 430.665C86.5943 429.77 87.3785 429.262 87.9874 429.531C88.5963 429.799 88.7992 430.743 88.4407 431.638L83.2469 444.603L92.0666 448.493C92.6754 448.762 92.8784 449.705 92.5198 450.6C92.1613 451.496 91.377 452.003 90.7681 451.735L80.846 447.359ZM180.537 2.84808C180.339 2.03943 180.728 1.00419 181.407 0.535807C182.085 0.0674277 182.795 0.343272 182.993 1.15192L180.537 2.84808ZM81.1747 444.248C117.464 420.746 144.185 391.356 163.283 358.078C182.386 324.791 193.927 287.503 199.737 248.119C211.366 169.291 200.004 82.2813 180.537 2.84808L182.993 1.15192C202.497 80.7337 213.997 168.318 202.247 247.968C196.367 287.823 184.659 325.744 165.185 359.677C145.707 393.617 118.524 423.455 81.8157 447.228L81.1747 444.248Z" fill="url(#paint1_linear_1_163)"/>
<defs>
<linearGradient id="paint0_linear_1_163" x1="299.406" y1="145.295" x2="174.149" y2="112.851" gradientUnits="userSpaceOnUse">
<stop stop-color="#BFF0FF"/>
<stop offset="1" stop-color="#82B4FF"/>
</linearGradient>
<linearGradient id="paint1_linear_1_163" x1="62.3631" y1="273.227" x2="240.095" y2="227.19" gradientUnits="userSpaceOnUse">
<stop stop-color="#BFF0FF"/>
<stop offset="1" stop-color="#82B4FF"/>
</linearGradient>
</defs>
</svg>
