<svg width="12" height="16" viewBox="0 0 12 16" fill="none" xmlns="http://www.w3.org/2000/svg">
<path d="M11.425 3.80499H10.665V7.61499H11.425V3.80499Z" fill="black"/>
<path d="M10.665 7.61501H9.905V9.90001H10.665V7.61501Z" fill="black"/>
<path d="M10.665 2.285H9.905V3.805H10.665V2.285Z" fill="black"/>
<path d="M9.90501 9.89999H9.14001V11.425H9.90501V9.89999Z" fill="black"/>
<path d="M9.90501 1.52H9.14001V2.285H9.90501V1.52Z" fill="black"/>
<path d="M9.14001 11.425H8.38V12.95H9.14001V11.425Z" fill="black"/>
<path d="M8.38 6.095H7.62V4.57H6.855V3.805H6.095V3.045H6.855V2.285H4.57V3.045H3.81V3.805H3.045V4.57H2.285V6.855H3.045V7.615H3.81V8.38H4.57V9.14001H6.855V8.38H7.62V7.615H8.38V6.855H9.14V4.57H8.38V6.095Z" fill="black"/>
<path d="M8.37999 12.95H7.62V13.71H8.37999V12.95Z" fill="black"/>
<path d="M8.37999 3.80499H7.62V4.56999H8.37999V3.80499Z" fill="black"/>
<path d="M9.13999 0.759995H7.62V1.51999H9.13999V0.759995Z" fill="black"/>
<path d="M7.62001 13.71H6.85501V14.475H7.62001V13.71Z" fill="black"/>
<path d="M7.62001 3.045H6.85501V3.805H7.62001V3.045Z" fill="black"/>
<path d="M6.855 14.475H6.095V15.235H6.855V14.475Z" fill="black"/>
<path d="M6.09499 15.235H5.32999V16H6.09499V15.235Z" fill="black"/>
<path d="M5.33001 14.475H4.57001V15.235H5.33001V14.475Z" fill="black"/>
<path d="M7.62 0H3.81V0.76H7.62V0Z" fill="black"/>
<path d="M4.57 13.71H3.81V14.475H4.57V13.71Z" fill="black"/>
<path d="M3.81001 12.95H3.04501V13.71H3.81001V12.95Z" fill="black"/>
<path d="M3.81 0.759995H2.285V1.51999H3.81V0.759995Z" fill="black"/>
<path d="M3.045 11.425H2.285V12.95H3.045V11.425Z" fill="black"/>
<path d="M2.28499 9.89999H1.51999V11.425H2.28499V9.89999Z" fill="black"/>
<path d="M2.28499 1.52H1.51999V2.285H2.28499V1.52Z" fill="black"/>
<path d="M1.52001 7.61501H0.76001V9.90001H1.52001V7.61501Z" fill="black"/>
<path d="M1.52001 2.285H0.76001V3.805H1.52001V2.285Z" fill="black"/>
<path d="M0.76 3.80499H0V7.61499H0.76V3.80499Z" fill="black"/>
</svg>
